<svg xmlns="http://www.w3.org/2000/svg" viewBox="0 0 512 512">
  <defs>
    <linearGradient id="bg" x1="0%" y1="0%" x2="100%" y2="100%">
      <stop offset="0%" style="stop-color:#0079bf"/>
      <stop offset="100%" style="stop-color:#005f99"/>
    </linearGradient>
  </defs>
  <!-- Background -->
  <rect width="512" height="512" rx="80" fill="url(#bg)"/>
  <!-- Three columns representing kanban -->
  <!-- Column 1 -->
  <rect x="50" y="80" width="120" height="352" rx="12" fill="rgba(255,255,255,0.15)"/>
  <rect x="62" y="110" width="96" height="70" rx="6" fill="#fffde7" transform="rotate(-1 110 145)"/>
  <rect x="62" y="192" width="96" height="55" rx="6" fill="#fffde7" transform="rotate(0.5 110 220)"/>
  <rect x="62" y="260" width="96" height="65" rx="6" fill="#fffde7" transform="rotate(-0.8 110 293)"/>
  <!-- Column 2 -->
  <rect x="196" y="80" width="120" height="352" rx="12" fill="rgba(255,255,255,0.15)"/>
  <rect x="208" y="110" width="96" height="60" rx="6" fill="#c8e6c9" transform="rotate(0.7 256 140)"/>
  <rect x="208" y="182" width="96" height="75" rx="6" fill="#c8e6c9" transform="rotate(-0.5 256 220)"/>
  <!-- Column 3 -->
  <rect x="342" y="80" width="120" height="352" rx="12" fill="rgba(255,255,255,0.15)"/>
  <rect x="354" y="110" width="96" height="55" rx="6" fill="#bbdefb" transform="rotate(-0.6 402 138)"/>
  <!-- Column headers -->
  <rect x="60" y="86" width="100" height="14" rx="3" fill="rgba(255,255,255,0.5)"/>
  <rect x="206" y="86" width="100" height="14" rx="3" fill="rgba(255,255,255,0.5)"/>
  <rect x="352" y="86" width="100" height="14" rx="3" fill="rgba(255,255,255,0.5)"/>
</svg>
